<svg width="201" height="200" viewBox="0 0 201 200" fill="none" xmlns="http://www.w3.org/2000/svg">
<g filter="url(#filter0_d_69_4328)">
<mask id="path-1-outside-1_69_4328" maskUnits="userSpaceOnUse" x="160.5" y="138" width="15" height="16" fill="black">
<rect fill="white" x="160.5" y="138" width="15" height="16"/>
<path fill-rule="evenodd" clip-rule="evenodd" d="M166.5 153C166.5 153 164.294 151.301 163.518 150C162.742 148.699 161.271 147.041 161.53 146C161.789 144.959 162.742 144.631 163.518 145.412C164.294 146.192 164.817 147.884 165.334 147.624C165.851 147.364 165.463 144.891 164.946 143.46C164.429 142.028 163.889 139 164.946 139C166.003 139 166.003 140 166.5 141.5C166.997 143 166.609 145 166.997 145C167.385 145 167.533 144.651 167.533 144C167.533 143.823 167.567 143.674 167.637 143.55C167.825 143.218 168.267 143.069 168.985 143.069C169.97 143.069 169.482 145 169.978 145C170.475 145 170.475 145.041 170.475 144C170.475 142.959 170.936 143.069 171.93 143.069C172.924 143.069 172.443 145 172.96 145C173.478 145 172.96 144 173.457 144C173.954 144 174.451 144.158 174.451 146.5C174.451 148.842 174.73 148.959 173.954 150C173.178 151.041 172.463 152 172.463 152C172.463 152 172.463 153 171.93 153C171.397 153 171.122 152 170.475 152C169.829 152 169.482 153 169.482 153H166.5ZM172.463 151V147H171.469V151H172.463ZM169.482 150C169.482 150.271 169.712 151 169.978 151C170.253 151 170.475 150.275 170.475 150V148C170.475 147.729 170.245 147 169.978 147C169.704 147 169.482 147.725 169.482 148V150ZM167.494 150C167.494 150.271 167.724 151 167.991 151C168.265 151 168.488 150.275 168.488 150V148C168.488 147.729 168.257 147 167.991 147C167.716 147 167.494 147.725 167.494 148V150Z"/>
</mask>
<path fill-rule="evenodd" clip-rule="evenodd" d="M166.5 153C166.5 153 164.294 151.301 163.518 150C162.742 148.699 161.271 147.041 161.53 146C161.789 144.959 162.742 144.631 163.518 145.412C164.294 146.192 164.817 147.884 165.334 147.624C165.851 147.364 165.463 144.891 164.946 143.46C164.429 142.028 163.889 139 164.946 139C166.003 139 166.003 140 166.5 141.5C166.997 143 166.609 145 166.997 145C167.385 145 167.533 144.651 167.533 144C167.533 143.823 167.567 143.674 167.637 143.55C167.825 143.218 168.267 143.069 168.985 143.069C169.97 143.069 169.482 145 169.978 145C170.475 145 170.475 145.041 170.475 144C170.475 142.959 170.936 143.069 171.93 143.069C172.924 143.069 172.443 145 172.96 145C173.478 145 172.96 144 173.457 144C173.954 144 174.451 144.158 174.451 146.5C174.451 148.842 174.73 148.959 173.954 150C173.178 151.041 172.463 152 172.463 152C172.463 152 172.463 153 171.93 153C171.397 153 171.122 152 170.475 152C169.829 152 169.482 153 169.482 153H166.5ZM172.463 151V147H171.469V151H172.463ZM169.482 150C169.482 150.271 169.712 151 169.978 151C170.253 151 170.475 150.275 170.475 150V148C170.475 147.729 170.245 147 169.978 147C169.704 147 169.482 147.725 169.482 148V150ZM167.494 150C167.494 150.271 167.724 151 167.991 151C168.265 151 168.488 150.275 168.488 150V148C168.488 147.729 168.257 147 167.991 147C167.716 147 167.494 147.725 167.494 148V150Z" fill="white"/>
<path d="M166.5 153L165.89 153.792L166.159 154H166.5V153ZM161.53 146L162.501 146.241L161.53 146ZM163.518 145.412L162.809 146.117L162.809 146.117L163.518 145.412ZM165.334 147.624L164.885 146.73L164.885 146.73L165.334 147.624ZM164.946 143.46L165.887 143.12L164.946 143.46ZM164.946 139V138H164.946L164.946 139ZM166.997 145L166.997 146H166.997L166.997 145ZM167.533 144H166.533H167.533ZM167.637 143.55L166.766 143.058L167.637 143.55ZM168.985 143.069V142.069V143.069ZM169.978 145V144V145ZM170.475 144L169.475 144L170.475 144ZM171.93 143.069V142.069V143.069ZM172.96 145V146V145ZM173.457 144V143V144ZM174.451 146.5L173.451 146.5L174.451 146.5ZM173.954 150L174.756 150.598L173.954 150ZM172.463 152L171.662 151.402L171.463 151.668V152H172.463ZM171.93 153V152V153ZM170.475 152V151V152ZM169.482 153V154H170.193L170.426 153.328L169.482 153ZM172.463 151V152H173.463V151H172.463ZM172.463 147H173.463V146H172.463V147ZM171.469 147V146H170.469V147H171.469ZM171.469 151H170.469V152H171.469V151ZM166.5 153C167.11 152.208 167.11 152.208 167.11 152.208C167.11 152.208 167.11 152.208 167.11 152.208C167.11 152.208 167.11 152.208 167.11 152.208C167.11 152.208 167.11 152.208 167.11 152.207C167.109 152.207 167.108 152.206 167.106 152.205C167.103 152.202 167.097 152.198 167.09 152.192C167.076 152.181 167.053 152.164 167.024 152.141C166.967 152.095 166.882 152.027 166.777 151.941C166.567 151.769 166.28 151.527 165.971 151.247C165.326 150.662 164.681 149.998 164.377 149.488L162.659 150.512C163.131 151.303 163.977 152.139 164.629 152.729C164.968 153.036 165.281 153.3 165.509 153.487C165.623 153.581 165.717 153.656 165.782 153.708C165.815 153.734 165.841 153.755 165.859 153.769C165.869 153.776 165.876 153.781 165.881 153.785C165.883 153.787 165.885 153.789 165.887 153.79C165.887 153.791 165.888 153.791 165.889 153.791C165.889 153.792 165.889 153.792 165.889 153.792C165.889 153.792 165.889 153.792 165.889 153.792C165.89 153.792 165.89 153.792 166.5 153ZM164.377 149.488C164.164 149.131 163.908 148.757 163.669 148.407C163.422 148.047 163.189 147.708 162.989 147.381C162.787 147.051 162.645 146.774 162.566 146.549C162.483 146.314 162.503 146.231 162.501 146.241L160.56 145.759C160.428 146.289 160.535 146.805 160.679 147.214C160.827 147.633 161.052 148.047 161.283 148.424C161.515 148.804 161.779 149.188 162.019 149.538C162.265 149.898 162.484 150.219 162.659 150.512L164.377 149.488ZM162.501 146.241C162.569 145.966 162.676 145.962 162.628 145.977C162.609 145.983 162.602 145.977 162.62 145.983C162.643 145.99 162.711 146.018 162.809 146.117L164.227 144.707C163.642 144.118 162.837 143.817 162.033 144.068C161.248 144.312 160.75 144.993 160.56 145.759L162.501 146.241ZM162.809 146.117C163.084 146.394 163.318 146.842 163.665 147.422C163.807 147.658 164.001 147.971 164.233 148.204C164.352 148.323 164.543 148.486 164.809 148.579C165.114 148.686 165.461 148.679 165.783 148.517L164.885 146.73C165.077 146.634 165.295 146.631 165.47 146.692C165.605 146.739 165.664 146.807 165.649 146.791C165.613 146.756 165.532 146.646 165.381 146.394C165.144 145.998 164.728 145.211 164.227 144.707L162.809 146.117ZM165.783 148.517C166.159 148.328 166.335 148.002 166.416 147.798C166.503 147.582 166.541 147.355 166.56 147.162C166.598 146.769 166.574 146.311 166.521 145.865C166.416 144.965 166.173 143.913 165.887 143.12L164.006 143.8C164.236 144.438 164.446 145.338 164.535 146.097C164.58 146.48 164.588 146.779 164.569 146.968C164.56 147.065 164.548 147.085 164.558 147.059C164.563 147.046 164.639 146.854 164.885 146.73L165.783 148.517ZM165.887 143.12C165.656 142.481 165.413 141.456 165.353 140.621C165.322 140.19 165.348 139.91 165.387 139.777C165.405 139.715 165.404 139.764 165.33 139.839C165.229 139.939 165.083 140 164.946 140L164.946 138C164.545 138 164.184 138.155 163.913 138.427C163.668 138.673 163.54 138.97 163.468 139.214C163.327 139.694 163.322 140.26 163.358 140.765C163.433 141.802 163.719 143.007 164.006 143.8L165.887 143.12ZM164.946 140C165.043 140 165.017 140.019 164.965 139.98C164.93 139.954 164.957 139.954 165.019 140.093C165.083 140.238 165.146 140.438 165.234 140.749C165.317 141.041 165.417 141.413 165.55 141.814L167.449 141.186C167.334 140.837 167.248 140.521 167.158 140.204C167.073 139.906 166.977 139.574 166.847 139.282C166.715 138.984 166.512 138.64 166.164 138.379C165.799 138.106 165.377 138 164.946 138V140ZM165.55 141.814C165.744 142.4 165.775 143.127 165.789 143.832C165.795 144.144 165.799 144.51 165.833 144.786C165.849 144.916 165.882 145.133 165.982 145.342C166.089 145.567 166.396 146 166.997 146L166.997 144C167.5 144 167.735 144.371 167.787 144.48C167.832 144.574 167.828 144.624 167.818 144.542C167.8 144.396 167.796 144.169 167.789 143.793C167.776 143.123 167.752 142.1 167.449 141.186L165.55 141.814ZM166.997 146C167.248 146 167.522 145.942 167.775 145.782C168.027 145.625 168.195 145.408 168.302 145.196C168.498 144.81 168.533 144.363 168.533 144H166.533C166.533 144.128 166.525 144.216 166.516 144.272C166.507 144.331 166.5 144.328 166.518 144.292C166.54 144.248 166.598 144.16 166.713 144.088C166.83 144.015 166.939 144 166.997 144L166.997 146ZM168.533 144C168.533 143.976 168.535 143.971 168.533 143.981C168.531 143.991 168.524 144.014 168.508 144.042L166.766 143.058C166.593 143.365 166.533 143.694 166.533 144H168.533ZM168.508 144.042C168.454 144.137 168.387 144.148 168.444 144.129C168.518 144.103 168.681 144.069 168.985 144.069V142.069C168.246 142.069 167.251 142.199 166.766 143.058L168.508 144.042ZM168.985 144.069C168.936 144.069 168.844 144.055 168.748 143.993C168.659 143.936 168.62 143.872 168.611 143.857C168.605 143.845 168.615 143.86 168.631 143.922C168.646 143.983 168.66 144.061 168.673 144.165C168.691 144.304 168.724 144.679 168.775 144.912C168.803 145.038 168.861 145.267 169.008 145.482C169.188 145.745 169.518 146 169.978 146V144C170.315 144 170.551 144.195 170.659 144.352C170.734 144.462 170.741 144.539 170.729 144.485C170.701 144.355 170.701 144.249 170.656 143.905C170.624 143.658 170.561 143.247 170.36 142.885C170.251 142.689 170.084 142.475 169.831 142.312C169.572 142.145 169.28 142.069 168.985 142.069V144.069ZM169.978 146C170.034 146 170.258 146.007 170.441 145.975C170.559 145.954 170.729 145.908 170.902 145.795C171.086 145.674 171.216 145.516 171.301 145.35C171.441 145.08 171.459 144.79 171.466 144.65C171.476 144.473 171.475 144.248 171.475 144L169.475 144C169.475 144.273 169.475 144.432 169.469 144.541C169.466 144.593 169.463 144.605 169.465 144.596C169.466 144.59 169.478 144.521 169.525 144.43C169.58 144.325 169.671 144.21 169.806 144.122C169.931 144.04 170.043 144.014 170.091 144.006C170.134 143.998 170.156 143.999 170.123 144C170.088 144.001 170.058 144 169.978 144V146ZM171.475 144C171.475 143.904 171.481 143.844 171.486 143.81C171.491 143.775 171.494 143.782 171.481 143.812C171.466 143.846 171.436 143.901 171.38 143.956C171.324 144.012 171.266 144.046 171.224 144.064C171.186 144.08 171.168 144.08 171.188 144.077C171.208 144.074 171.247 144.07 171.316 144.068C171.385 144.066 171.467 144.066 171.573 144.067C171.674 144.068 171.8 144.069 171.93 144.069V142.069C171.731 142.069 171.452 142.062 171.251 142.069C171.044 142.076 170.736 142.097 170.437 142.225C170.081 142.377 169.805 142.648 169.645 143.019C169.507 143.339 169.475 143.687 169.475 144L171.475 144ZM171.93 144.069C171.884 144.069 171.795 144.055 171.702 143.996C171.615 143.941 171.577 143.88 171.568 143.865C171.562 143.854 171.572 143.869 171.589 143.932C171.605 143.993 171.619 144.071 171.634 144.175C171.654 144.317 171.691 144.692 171.748 144.93C171.779 145.06 171.844 145.29 171.999 145.504C172.188 145.765 172.517 146 172.96 146V144C173.275 144 173.505 144.175 173.618 144.33C173.696 144.438 173.706 144.517 173.694 144.466C173.664 144.343 173.662 144.235 173.614 143.894C173.579 143.648 173.512 143.238 173.307 142.877C173.196 142.681 173.028 142.469 172.775 142.309C172.516 142.144 172.225 142.069 171.93 142.069V144.069ZM172.96 146C173.19 146 173.464 145.942 173.711 145.756C173.952 145.574 174.073 145.342 174.133 145.167C174.19 144.999 174.206 144.844 174.212 144.746C174.218 144.646 174.217 144.547 174.216 144.49C174.216 144.418 174.216 144.389 174.217 144.368C174.218 144.345 174.219 144.386 174.197 144.456C174.173 144.531 174.106 144.691 173.936 144.826C173.757 144.968 173.569 145 173.457 145V143C173.221 143 172.941 143.063 172.692 143.26C172.454 143.45 172.342 143.687 172.289 143.856C172.237 144.02 172.224 144.171 172.219 144.264C172.214 144.361 172.216 144.457 172.216 144.51C172.217 144.578 172.217 144.604 172.216 144.621C172.215 144.64 172.215 144.594 172.24 144.521C172.268 144.439 172.34 144.285 172.508 144.158C172.683 144.027 172.86 144 172.96 144V146ZM173.457 145C173.542 145 173.496 145.01 173.419 144.976C173.313 144.93 173.268 144.859 173.268 144.861C173.282 144.885 173.334 144.996 173.378 145.277C173.421 145.552 173.451 145.945 173.451 146.5L175.451 146.5C175.451 145.32 175.337 144.46 175.013 143.882C174.827 143.552 174.565 143.296 174.226 143.146C173.915 143.009 173.621 143 173.457 143V145ZM173.451 146.5C173.451 147.106 173.469 147.569 173.483 147.928C173.498 148.303 173.505 148.513 173.495 148.678C173.487 148.814 173.469 148.883 173.44 148.95C173.403 149.036 173.329 149.165 173.152 149.402L174.756 150.598C174.967 150.315 175.15 150.038 175.279 149.737C175.416 149.416 175.473 149.114 175.492 148.798C175.509 148.511 175.495 148.187 175.482 147.849C175.468 147.495 175.451 147.065 175.451 146.5L173.451 146.5ZM173.152 149.402C172.764 149.923 172.392 150.423 172.116 150.793C171.978 150.978 171.865 151.13 171.785 151.236C171.746 151.289 171.715 151.331 171.694 151.359C171.683 151.373 171.675 151.384 171.67 151.391C171.667 151.395 171.665 151.398 171.664 151.4C171.663 151.4 171.662 151.401 171.662 151.402C171.662 151.402 171.662 151.402 171.662 151.402C171.662 151.402 171.662 151.402 171.662 151.402C171.662 151.402 171.662 151.402 171.662 151.402C171.662 151.402 171.662 151.402 172.463 152C173.265 152.598 173.265 152.598 173.265 152.598C173.265 152.598 173.265 152.598 173.265 152.598C173.265 152.598 173.265 152.598 173.265 152.597C173.265 152.597 173.265 152.597 173.266 152.597C173.266 152.596 173.266 152.596 173.267 152.595C173.269 152.593 173.271 152.59 173.273 152.587C173.279 152.579 173.287 152.569 173.297 152.554C173.318 152.526 173.349 152.485 173.389 152.432C173.468 152.325 173.582 152.173 173.72 151.988C173.995 151.618 174.368 151.118 174.756 150.598L173.152 149.402ZM172.463 152C171.463 152 171.463 152 171.463 151.999C171.463 151.999 171.463 151.999 171.463 151.999C171.463 151.999 171.463 151.998 171.463 151.998C171.463 151.997 171.463 151.997 171.463 151.996C171.463 151.996 171.463 151.995 171.463 151.994C171.463 151.993 171.463 151.993 171.463 151.993C171.463 151.994 171.463 151.998 171.463 152.005C171.462 152.018 171.461 152.04 171.459 152.068C171.454 152.128 171.444 152.192 171.43 152.242C171.413 152.306 171.409 152.28 171.457 152.219C171.487 152.182 171.543 152.124 171.634 152.076C171.729 152.025 171.833 152 171.93 152V154C172.429 154 172.797 153.746 173.019 153.468C173.218 153.22 173.313 152.944 173.363 152.758C173.416 152.558 173.44 152.372 173.451 152.245C173.457 152.179 173.46 152.123 173.462 152.081C173.462 152.06 173.463 152.043 173.463 152.029C173.463 152.022 173.463 152.016 173.463 152.011C173.463 152.009 173.463 152.007 173.463 152.005C173.463 152.004 173.463 152.003 173.463 152.002C173.463 152.002 173.463 152.001 173.463 152.001C173.463 152.001 173.463 152.001 173.463 152.001C173.463 152 173.463 152 172.463 152ZM171.93 152C172.132 152 172.238 152.1 172.215 152.08C172.178 152.05 172.135 152 172.002 151.846C171.899 151.726 171.723 151.523 171.5 151.356C171.261 151.177 170.917 151 170.475 151V153C170.358 153 170.29 152.948 170.301 152.956C170.328 152.977 170.376 153.024 170.489 153.154C170.572 153.25 170.738 153.45 170.923 153.607C171.121 153.775 171.462 154 171.93 154V152ZM170.475 151C169.615 151 169.105 151.645 168.905 151.943C168.782 152.126 168.693 152.303 168.636 152.43C168.606 152.494 168.583 152.55 168.567 152.591C168.559 152.612 168.552 152.629 168.547 152.643C168.545 152.65 168.543 152.655 168.541 152.66C168.54 152.663 168.539 152.665 168.539 152.667C168.538 152.668 168.538 152.669 168.538 152.67C168.538 152.67 168.537 152.67 168.537 152.671C168.537 152.671 168.537 152.671 168.537 152.671C168.537 152.672 168.537 152.672 169.482 153C170.426 153.328 170.426 153.328 170.426 153.329C170.426 153.329 170.426 153.329 170.426 153.329C170.426 153.329 170.426 153.33 170.426 153.33C170.425 153.331 170.425 153.331 170.425 153.332C170.425 153.333 170.424 153.333 170.424 153.334C170.424 153.335 170.424 153.335 170.424 153.335C170.424 153.334 170.426 153.33 170.428 153.323C170.434 153.31 170.443 153.287 170.456 153.258C170.484 153.197 170.522 153.124 170.567 153.057C170.588 153.025 170.608 152.999 170.625 152.98C170.642 152.96 170.652 152.953 170.652 152.953C170.65 152.954 170.586 153 170.475 153V151ZM169.482 152H166.5V154H169.482V152ZM173.463 151V147H171.463V151H173.463ZM172.463 146H171.469V148H172.463V146ZM170.469 147V151H172.469V147H170.469ZM171.469 152H172.463V150H171.469V152ZM168.482 150C168.482 150.316 168.588 150.703 168.708 150.989C168.773 151.142 168.87 151.338 169.013 151.513C169.127 151.653 169.448 152 169.978 152V150C170.182 150 170.334 150.071 170.422 150.127C170.505 150.181 170.55 150.234 170.564 150.251C170.589 150.281 170.579 150.277 170.552 150.214C170.529 150.159 170.508 150.094 170.494 150.035C170.487 150.007 170.483 149.986 170.481 149.974C170.479 149.958 170.482 149.969 170.482 150H168.482ZM169.978 152C170.501 152 170.822 151.667 170.944 151.518C171.09 151.34 171.189 151.142 171.253 150.988C171.374 150.697 171.475 150.312 171.475 150H169.475C169.475 149.96 169.48 149.973 169.463 150.043C169.449 150.102 169.429 150.166 169.407 150.218C169.381 150.28 169.372 150.28 169.4 150.247C169.415 150.228 169.462 150.175 169.546 150.122C169.636 150.066 169.784 150 169.978 150V152ZM171.475 150V148H169.475V150H171.475ZM171.475 148C171.475 147.684 171.369 147.297 171.249 147.011C171.184 146.858 171.087 146.662 170.944 146.487C170.83 146.347 170.509 146 169.978 146V148C169.775 148 169.623 147.929 169.535 147.873C169.452 147.819 169.407 147.766 169.393 147.749C169.368 147.719 169.378 147.723 169.405 147.786C169.428 147.841 169.449 147.906 169.463 147.965C169.47 147.993 169.474 148.014 169.476 148.026C169.478 148.042 169.475 148.031 169.475 148H171.475ZM169.978 146C169.456 146 169.135 146.333 169.013 146.482C168.867 146.66 168.768 146.858 168.704 147.012C168.583 147.303 168.482 147.688 168.482 148H170.482C170.482 148.04 170.477 148.027 170.494 147.957C170.508 147.898 170.528 147.834 170.55 147.782C170.576 147.72 170.585 147.72 170.557 147.753C170.542 147.772 170.495 147.825 170.411 147.878C170.321 147.934 170.173 148 169.978 148V146ZM168.482 148V150H170.482V148H168.482ZM166.494 150C166.494 150.316 166.6 150.703 166.721 150.989C166.785 151.142 166.882 151.338 167.025 151.513C167.139 151.653 167.46 152 167.991 152V150C168.194 150 168.346 150.071 168.434 150.127C168.517 150.181 168.563 150.234 168.576 150.251C168.601 150.281 168.591 150.277 168.564 150.214C168.541 150.159 168.52 150.094 168.506 150.035C168.499 150.007 168.495 149.986 168.493 149.974C168.491 149.958 168.494 149.969 168.494 150H166.494ZM167.991 152C168.513 152 168.834 151.667 168.956 151.518C169.102 151.34 169.201 151.142 169.265 150.988C169.387 150.697 169.488 150.312 169.488 150H167.488C167.488 149.96 167.492 149.973 167.475 150.043C167.461 150.102 167.441 150.166 167.419 150.218C167.393 150.28 167.385 150.28 167.412 150.247C167.427 150.228 167.474 150.175 167.558 150.122C167.648 150.066 167.796 150 167.991 150V152ZM169.488 150V148H167.488V150H169.488ZM169.488 148C169.488 147.684 169.381 147.297 169.261 147.011C169.197 146.858 169.099 146.662 168.956 146.487C168.842 146.347 168.521 146 167.991 146V148C167.788 148 167.635 147.929 167.547 147.873C167.464 147.819 167.419 147.766 167.405 147.749C167.38 147.719 167.391 147.723 167.417 147.786C167.44 147.841 167.461 147.906 167.476 147.965C167.482 147.993 167.486 148.014 167.488 148.026C167.49 148.042 167.488 148.031 167.488 148H169.488ZM167.991 146C167.469 146 167.148 146.333 167.025 146.482C166.879 146.66 166.78 146.858 166.716 147.012C166.595 147.303 166.494 147.688 166.494 148H168.494C168.494 148.04 168.489 148.027 168.506 147.957C168.52 147.898 168.54 147.834 168.562 147.782C168.588 147.72 168.597 147.72 168.569 147.753C168.554 147.772 168.508 147.825 168.423 147.878C168.334 147.934 168.185 148 167.991 148V146ZM166.494 148V150H168.494V148H166.494Z" fill="black" mask="url(#path-1-outside-1_69_4328)"/>
</g>
<g filter="url(#filter1_ii_69_4328)">
<rect x="0.5" width="200" height="200" rx="100" fill="url(#paint0_linear_69_4328)"/>
<rect x="0.5" width="200" height="200" rx="100" fill="white" fill-opacity="0.25"/>
</g>
<g filter="url(#filter2_i_69_4328)">
<path d="M70.881 102.397L70.5982 100.552C68.1572 84.62 66.9366 76.6542 71.5261 72.3207C76.1155 67.9872 83.8102 69.8399 99.1996 73.5453L101.235 74.0354C122.242 79.0933 132.745 81.6222 134.286 89.0538C135.827 96.4853 127.227 103.134 110.026 116.43L108.273 117.785C94.2921 128.593 87.3014 133.997 81.1226 131.455C74.9437 128.912 73.5894 120.073 70.881 102.397Z" fill="white"/>
</g>
<defs>
<filter id="filter0_d_69_4328" x="158.5" y="137" width="19" height="20" filterUnits="userSpaceOnUse" color-interpolation-filters="sRGB">
<feFlood flood-opacity="0" result="BackgroundImageFix"/>
<feColorMatrix in="SourceAlpha" type="matrix" values="0 0 0 0 0 0 0 0 0 0 0 0 0 0 0 0 0 0 127 0" result="hardAlpha"/>
<feOffset dy="1"/>
<feGaussianBlur stdDeviation="1"/>
<feColorMatrix type="matrix" values="0 0 0 0 0 0 0 0 0 0 0 0 0 0 0 0 0 0 1 0"/>
<feBlend mode="normal" in2="BackgroundImageFix" result="effect1_dropShadow_69_4328"/>
<feBlend mode="normal" in="SourceGraphic" in2="effect1_dropShadow_69_4328" result="shape"/>
</filter>
<filter id="filter1_ii_69_4328" x="0.5" y="-11" width="200" height="211" filterUnits="userSpaceOnUse" color-interpolation-filters="sRGB">
<feFlood flood-opacity="0" result="BackgroundImageFix"/>
<feBlend mode="normal" in="SourceGraphic" in2="BackgroundImageFix" result="shape"/>
<feColorMatrix in="SourceAlpha" type="matrix" values="0 0 0 0 0 0 0 0 0 0 0 0 0 0 0 0 0 0 127 0" result="hardAlpha"/>
<feMorphology radius="11" operator="erode" in="SourceAlpha" result="effect1_innerShadow_69_4328"/>
<feOffset dy="-12"/>
<feComposite in2="hardAlpha" operator="arithmetic" k2="-1" k3="1"/>
<feColorMatrix type="matrix" values="0 0 0 0 0.616642 0 0 0 0 0.176458 0 0 0 0 0.9625 0 0 0 1 0"/>
<feBlend mode="normal" in2="shape" result="effect1_innerShadow_69_4328"/>
<feColorMatrix in="SourceAlpha" type="matrix" values="0 0 0 0 0 0 0 0 0 0 0 0 0 0 0 0 0 0 127 0" result="hardAlpha"/>
<feMorphology radius="5" operator="erode" in="SourceAlpha" result="effect2_innerShadow_69_4328"/>
<feOffset dy="-4"/>
<feComposite in2="hardAlpha" operator="arithmetic" k2="-1" k3="1"/>
<feColorMatrix type="matrix" values="0 0 0 0 0.141176 0 0 0 0 0.188235 0 0 0 0 0.254902 0 0 0 1 0"/>
<feBlend mode="normal" in2="effect1_innerShadow_69_4328" result="effect2_innerShadow_69_4328"/>
</filter>
<filter id="filter2_i_69_4328" x="68.4246" y="69.8115" width="66.0378" height="62.2642" filterUnits="userSpaceOnUse" color-interpolation-filters="sRGB">
<feFlood flood-opacity="0" result="BackgroundImageFix"/>
<feBlend mode="normal" in="SourceGraphic" in2="BackgroundImageFix" result="shape"/>
<feColorMatrix in="SourceAlpha" type="matrix" values="0 0 0 0 0 0 0 0 0 0 0 0 0 0 0 0 0 0 127 0" result="hardAlpha"/>
<feOffset dy="-6"/>
<feComposite in2="hardAlpha" operator="arithmetic" k2="-1" k3="1"/>
<feColorMatrix type="matrix" values="0 0 0 0 0.141176 0 0 0 0 0.188235 0 0 0 0 0.254902 0 0 0 1 0"/>
<feBlend mode="normal" in2="shape" result="effect1_innerShadow_69_4328"/>
</filter>
<linearGradient id="paint0_linear_69_4328" x1="100.5" y1="32.8358" x2="100.5" y2="200" gradientUnits="userSpaceOnUse">
<stop stop-color="#FE71FE"/>
<stop offset="1" stop-color="#7199FF"/>
</linearGradient>
</defs>
</svg>
